<svg xmlns="http://www.w3.org/2000/svg" xmlns:xlink="http://www.w3.org/1999/xlink" width="500" zoomAndPan="magnify" viewBox="0 0 375 374.999991" height="500" preserveAspectRatio="xMidYMid meet" version="1.0"><defs><g/><clipPath id="c09a2b4cdd"><path d="M 124 13 L 259.9375 13 L 259.9375 245 L 124 245 Z M 124 13 " clip-rule="nonzero"/></clipPath></defs><path fill="#777cf9" d="M 230.484375 88.492188 C 208.394531 88.492188 186.308594 88.492188 164.21875 88.492188 C 162.597656 88.492188 160.980469 88.492188 159.359375 88.492188 C 158.6875 88.492188 158.148438 88.941406 157.949219 89.566406 C 155.992188 95.636719 154.886719 102.058594 154.175781 108.378906 C 152.875 119.953125 153.421875 132.386719 158.792969 142.945312 C 165.570312 156.261719 179.945312 161.898438 194.273438 162.113281 C 208.859375 162.332031 223.558594 156.472656 230.746094 143.238281 C 236.398438 132.828125 236.914062 120.210938 235.699219 108.679688 C 235.027344 102.261719 233.878906 95.726562 231.894531 89.566406 C 231.316406 87.777344 228.488281 88.542969 229.074219 90.34375 C 231.019531 96.351562 232.148438 102.734375 232.8125 109 C 234.023438 120.535156 233.425781 133.136719 227.328125 143.328125 C 219.183594 156.941406 201.8125 160.804688 187.03125 158.609375 C 179.878906 157.546875 172.929688 154.859375 167.585938 149.886719 C 163.136719 145.742188 160.269531 140.257812 158.585938 134.464844 C 155.835938 125.003906 156.117188 114.730469 157.527344 105.0625 C 158.25 100.117188 159.234375 95.109375 160.769531 90.34375 C 160.300781 90.699219 159.828125 91.058594 159.359375 91.414062 C 181.445312 91.414062 203.535156 91.414062 225.621094 91.414062 C 227.242188 91.414062 228.863281 91.414062 230.484375 91.414062 C 232.367188 91.414062 232.367188 88.492188 230.484375 88.492188 " fill-opacity="1" fill-rule="nonzero"/><g clip-path="url(#c09a2b4cdd)"><path fill="#777cf9" d="M 251.433594 172.917969 C 254.898438 164.769531 254.984375 154.753906 253.835938 146.097656 C 253.609375 144.398438 253.308594 142.710938 252.816406 141.066406 C 252.625 140.425781 252.367188 139.8125 252.089844 139.203125 C 251.980469 138.960938 251.84375 138.734375 251.707031 138.507812 C 250.972656 137.324219 251.59375 139.128906 251.621094 138.980469 C 252.222656 135.976562 253.539062 133.039062 254.34375 130.078125 C 255.675781 125.179688 256.550781 120.105469 256.550781 115.015625 C 256.550781 109.644531 254.773438 104.539062 253.363281 99.417969 C 253.089844 98.417969 252.808594 97.429688 252.503906 96.441406 C 252.40625 96.144531 252.300781 95.847656 252.1875 95.554688 C 251.789062 94.542969 252.25 95.417969 252.078125 95.914062 C 252.433594 94.898438 252.8125 93.921875 253.050781 92.867188 C 254.078125 88.339844 253.054688 83.609375 251.453125 79.351562 C 249.394531 73.867188 245.925781 68.566406 241.738281 64.453125 C 241.519531 65.265625 241.304688 66.082031 241.089844 66.894531 C 245.960938 65.359375 247.820312 60.316406 248.453125 55.683594 C 249.335938 49.21875 248.464844 42.546875 247.148438 36.199219 C 245.914062 30.230469 244.125 24.195312 241.308594 18.761719 C 240.09375 16.417969 237.160156 11.441406 233.820312 13.558594 C 231.851562 14.8125 231.296875 17.859375 230.695312 19.917969 C 229.347656 24.523438 228.234375 29.199219 227.113281 33.863281 C 225.1875 41.855469 223.722656 50.046875 221.4375 57.945312 C 222.253906 57.730469 223.066406 57.515625 223.882812 57.300781 C 220.566406 53.367188 215.464844 50.300781 210.140625 51.167969 C 206.871094 51.707031 203.742188 53.617188 201.882812 56.398438 C 202.792969 56.640625 203.699219 56.886719 204.609375 57.132812 C 204.355469 51.648438 198.714844 49.089844 193.90625 48.632812 C 189.8125 48.246094 184.160156 50.566406 181.414062 53.675781 C 182.007812 53.597656 182.597656 53.523438 183.1875 53.445312 C 178.734375 50.890625 173.589844 49.894531 169.460938 53.535156 C 167.507812 55.257812 166.089844 57.96875 165.488281 60.492188 C 166.300781 60.277344 167.117188 60.0625 167.929688 59.847656 C 162.863281 54.59375 154 55.847656 149.4375 61.195312 C 150.25 61.410156 151.066406 61.625 151.878906 61.839844 C 148.847656 54.019531 146.941406 45.660156 144.863281 37.546875 C 143.917969 33.855469 142.992188 30.152344 142.179688 26.429688 C 141.757812 24.492188 141.085938 22.238281 139.5 20.914062 C 136.257812 18.199219 132.789062 21.75 130.980469 24.34375 C 127.742188 28.984375 126.007812 34.839844 125.039062 40.347656 C 123.425781 49.550781 124.148438 60.1875 130.855469 67.320312 C 132.480469 69.042969 134.480469 70.417969 136.597656 71.464844 C 137.9375 72.128906 138.109375 73.238281 138.507812 74.664062 C 138.699219 75.34375 139.464844 77.25 139.167969 77.894531 C 138.738281 78.84375 138.421875 79.832031 138.140625 80.835938 C 136.597656 86.363281 137.230469 92.941406 138.988281 98.371094 C 139.332031 97.769531 139.671875 97.171875 140.011719 96.574219 C 126.089844 102.308594 130.972656 119.148438 137.222656 129.085938 C 137.300781 128.496094 137.375 127.90625 137.449219 127.3125 C 135.355469 129.445312 133.210938 131.414062 131.570312 133.941406 C 128.941406 138.007812 128.089844 142.933594 127.988281 147.699219 C 127.847656 154.101562 128.960938 160.894531 131.792969 166.671875 C 132.8125 168.753906 134.273438 171.027344 136.238281 172.359375 C 136.238281 171.519531 136.238281 170.679688 136.238281 169.835938 C 130.347656 172.976562 128.164062 179.375 128.445312 185.738281 C 128.644531 190.261719 130.339844 197.910156 135.976562 198.355469 C 135.554688 197.625 135.132812 196.890625 134.710938 196.160156 C 130.199219 202.726562 130.058594 210.46875 135.261719 216.636719 C 135.636719 217.082031 136.046875 217.511719 136.484375 217.890625 C 135.671875 217.1875 136.058594 217.894531 136.050781 218.585938 C 136.046875 219.078125 136.042969 219.570312 136.046875 220.066406 C 136.046875 220.894531 136.128906 221.707031 136.242188 222.527344 C 136.445312 223.972656 137.195312 225.203125 138.078125 226.332031 C 138.945312 227.4375 141.191406 229.90625 142.679688 229.90625 C 142.210938 229.546875 141.738281 229.1875 141.269531 228.832031 C 144.011719 239.136719 157.257812 234.375 163.765625 231.378906 C 163.097656 231.207031 162.433594 231.035156 161.765625 230.859375 C 163.46875 234.027344 167.09375 235.875 170.277344 237.203125 C 174.972656 239.164062 179.957031 240.265625 184.988281 240.917969 C 189.539062 241.507812 194.265625 241.621094 198.78125 240.679688 C 201.894531 240.027344 205.328125 238.453125 206.257812 235.140625 C 205.441406 235.355469 204.628906 235.574219 203.816406 235.789062 C 212.773438 244.867188 233.789062 250.214844 241.921875 237.367188 C 241.371094 237.589844 240.820312 237.8125 240.269531 238.035156 C 246.910156 239.625 252.316406 236.910156 254.90625 230.617188 C 257.453125 224.429688 256.753906 216.566406 254.472656 210.421875 C 254.34375 210.894531 254.21875 211.367188 254.09375 211.84375 C 254.992188 210.898438 255.851562 209.914062 256.644531 208.875 C 258.105469 206.964844 258.546875 204.984375 258.96875 202.625 C 259.898438 197.445312 259.5625 192.132812 258.398438 187.019531 C 257.164062 181.605469 254.820312 175.902344 251.433594 171.445312 C 250.308594 169.964844 247.765625 171.417969 248.910156 172.917969 C 251.828125 176.761719 253.800781 181.453125 255.128906 186.050781 C 256.441406 190.605469 256.835938 195.332031 256.394531 200.042969 C 256.195312 202.179688 255.921875 204.789062 254.710938 206.601562 C 253.949219 207.742188 252.972656 208.78125 252.023438 209.777344 C 251.6875 210.132812 251.46875 210.710938 251.648438 211.199219 C 254.8125 219.703125 254.839844 238.519531 241.046875 235.21875 C 240.390625 235.058594 239.757812 235.316406 239.394531 235.890625 C 232.339844 247.035156 213.425781 241.363281 205.882812 233.71875 C 205.105469 232.933594 203.730469 233.3125 203.4375 234.367188 C 202.703125 236.972656 199.1875 237.671875 196.90625 238.070312 C 192.835938 238.78125 188.492188 238.480469 184.425781 237.921875 C 180.132812 237.332031 175.871094 236.289062 171.835938 234.707031 C 169.113281 233.640625 165.738281 232.078125 164.292969 229.382812 C 163.886719 228.632812 162.992188 228.535156 162.289062 228.859375 C 157.714844 230.960938 146.191406 235.949219 144.089844 228.054688 C 143.921875 227.429688 143.328125 226.980469 142.679688 226.980469 C 142.816406 226.980469 141.324219 225.488281 141.175781 225.351562 C 140.578125 224.808594 140.074219 224.210938 139.652344 223.527344 C 139.023438 222.496094 138.992188 221.234375 138.96875 220.066406 C 138.949219 218.980469 139.492188 216.625 138.5625 215.835938 C 138.246094 215.5625 137.953125 215.257812 137.667969 214.949219 C 132.917969 209.855469 133.453125 203.136719 137.238281 197.632812 C 137.917969 196.644531 136.988281 195.515625 135.976562 195.433594 C 132.40625 195.152344 131.472656 188.085938 131.347656 185.253906 C 131.117188 180.066406 132.9375 174.90625 137.714844 172.359375 C 138.742188 171.8125 138.578125 170.421875 137.714844 169.835938 C 137.523438 169.710938 138.023438 170.097656 137.667969 169.800781 C 137.347656 169.53125 137.058594 169.230469 136.773438 168.925781 C 135.757812 167.832031 134.996094 166.515625 134.320312 165.199219 C 131.609375 159.929688 130.882812 153.535156 130.914062 147.699219 C 130.933594 143.394531 131.8125 139.101562 134.097656 135.417969 C 135.542969 133.085938 137.617188 131.316406 139.519531 129.378906 C 139.96875 128.921875 140.101562 128.167969 139.746094 127.609375 C 134.722656 119.617188 128.984375 104.253906 140.789062 99.390625 C 141.5 99.097656 142.078125 98.417969 141.8125 97.59375 C 140.796875 94.457031 140.351562 91.105469 140.28125 87.824219 C 140.21875 85.03125 140.636719 82.285156 141.582031 79.660156 C 142.140625 78.113281 142.152344 77.671875 141.820312 75.996094 C 141.535156 74.554688 141.164062 73.117188 140.628906 71.742188 C 139.453125 68.710938 135.75 67.9375 133.464844 65.792969 C 131.164062 63.632812 129.605469 60.8125 128.621094 57.84375 C 126.566406 51.644531 126.984375 44.738281 128.394531 38.457031 C 129.492188 33.5625 131.273438 27.960938 134.792969 24.226562 C 135.351562 23.632812 136.074219 23.078125 136.691406 22.898438 C 137.070312 22.789062 137.335938 22.847656 137.796875 23.316406 C 138.53125 24.066406 138.859375 25.273438 139.128906 26.257812 C 139.675781 28.222656 140.046875 30.25 140.527344 32.230469 C 142.972656 42.367188 145.285156 52.875 149.058594 62.617188 C 149.421875 63.546875 150.722656 64.179688 151.503906 63.261719 C 155.039062 59.125 161.84375 57.75 165.863281 61.914062 C 166.609375 62.6875 168.050781 62.332031 168.308594 61.269531 C 168.710938 59.578125 169.53125 57.898438 170.625 56.554688 C 173.625 52.851562 178.023438 53.855469 181.710938 55.972656 C 182.253906 56.28125 183.050781 56.234375 183.484375 55.742188 C 185.445312 53.523438 189.242188 51.910156 192.089844 51.566406 C 195.570312 51.140625 201.488281 52.949219 201.683594 57.132812 C 201.75 58.617188 203.59375 59.085938 204.40625 57.871094 C 205.644531 56.027344 208.042969 54.59375 210.351562 54.082031 C 214.789062 53.09375 219.113281 56.164062 221.8125 59.367188 C 222.546875 60.234375 223.972656 59.707031 224.257812 58.71875 C 225.804688 53.375 226.828125 47.835938 228.089844 42.417969 C 229.8125 35.050781 231.484375 27.644531 233.609375 20.378906 C 233.90625 19.367188 234.21875 18.359375 234.585938 17.371094 C 234.742188 16.949219 235.253906 16.113281 235.296875 16.085938 C 235.515625 15.925781 235.398438 15.949219 235.65625 16.085938 C 236.164062 16.347656 236.632812 16.867188 237.054688 17.417969 C 240.3125 21.707031 241.925781 27.464844 243.289062 32.582031 C 244.976562 38.921875 246.054688 45.542969 245.839844 52.117188 C 245.703125 56.214844 244.96875 62.605469 240.3125 64.078125 C 239.28125 64.402344 238.859375 65.722656 239.667969 66.519531 C 245.84375 72.582031 251.730469 82.425781 250.367188 91.371094 C 250.191406 92.507812 249.84375 93.605469 249.433594 94.675781 C 248.964844 95.894531 249.582031 96.867188 249.9375 98.058594 C 251.460938 103.109375 253.296875 108.441406 253.589844 113.726562 C 253.882812 118.980469 252.859375 124.25 251.523438 129.300781 C 250.730469 132.296875 249.523438 135.195312 248.800781 138.203125 C 248.527344 139.328125 249.257812 139.917969 249.660156 140.886719 C 250.328125 142.5 250.628906 144.285156 250.894531 146.003906 C 251.617188 150.675781 251.589844 155.523438 251.242188 160.230469 C 250.964844 163.992188 250.394531 167.945312 248.910156 171.445312 C 248.179688 173.15625 250.695312 174.648438 251.433594 172.917969 " fill-opacity="1" fill-rule="nonzero"/></g><path fill="#281f1f" d="M 207.289062 141.355469 C 202 139.335938 190.015625 139.605469 184.628906 141.355469 C 183.554688 141.703125 183.320312 142.929688 183.808594 144.171875 C 184.753906 146.59375 189.679688 149.753906 195.960938 149.859375 C 202.242188 149.753906 207.167969 146.59375 208.113281 144.171875 C 208.597656 142.929688 208.347656 141.757812 207.289062 141.355469 " fill-opacity="1" fill-rule="nonzero"/><path fill="#777cf9" d="M 137.003906 31.691406 C 136.894531 30.039062 135.414062 28.234375 133.828125 29.882812 C 132.480469 31.285156 132.03125 33.785156 131.609375 35.597656 C 129.902344 43.007812 130.011719 51.242188 132.746094 58.386719 C 134.191406 62.167969 136.511719 65.523438 139.566406 68.175781 C 140.972656 69.394531 143.390625 69.503906 142.980469 66.980469 C 142.5 64.074219 141.285156 61.199219 140.585938 58.332031 C 139.15625 52.453125 138.339844 46.457031 137.714844 40.445312 C 137.414062 37.535156 137.160156 34.613281 137.003906 31.691406 C 136.902344 29.816406 133.976562 29.804688 134.078125 31.691406 C 134.585938 41.074219 135.683594 50.558594 137.910156 59.699219 C 138.539062 62.28125 139.40625 64.785156 140.074219 67.351562 C 140.097656 67.445312 140.121094 67.542969 140.140625 67.640625 C 140.066406 67.292969 140.132812 65.546875 142.039062 66.40625 C 141.796875 66.300781 141.914062 66.34375 141.636719 66.109375 C 140.3125 64.988281 139.128906 63.714844 138.113281 62.308594 C 133.925781 56.503906 133.070312 48.921875 133.589844 41.972656 C 133.785156 39.347656 134.25 36.726562 135 34.207031 C 135.21875 33.472656 135.464844 32.742188 135.835938 32.070312 C 136.011719 31.757812 136 31.878906 135.796875 32.011719 C 134.867188 32.617188 134.105469 31.65625 134.054688 31.484375 C 134.160156 31.847656 134.046875 31.191406 134.078125 31.691406 C 134.207031 33.5625 137.132812 33.570312 137.003906 31.691406 " fill-opacity="1" fill-rule="nonzero"/><path fill="#777cf9" d="M 237.714844 25.242188 C 237.683594 24.898438 237.695312 24.765625 237.683594 24.804688 C 237.15625 25.597656 236.585938 25.851562 235.96875 25.570312 C 235.660156 25.386719 235.964844 25.605469 236.027344 25.675781 C 236.367188 26.050781 236.804688 26.902344 237.101562 27.476562 C 238.371094 29.9375 239.203125 32.636719 239.871094 35.3125 C 241.652344 42.417969 241.71875 50.371094 238.074219 56.914062 C 237.40625 58.109375 236.589844 59.226562 235.675781 60.242188 C 234.851562 61.164062 236.59375 58.769531 237.457031 61.191406 C 237.605469 61.605469 237.496094 61.082031 237.515625 60.855469 C 237.742188 58.214844 238.207031 55.59375 238.425781 52.949219 C 239.183594 43.761719 238.695312 34.390625 237.714844 25.242188 C 237.515625 23.390625 234.589844 23.371094 234.789062 25.242188 C 235.929688 35.882812 236.359375 46.757812 235.039062 57.398438 C 234.855469 58.902344 233.789062 61.894531 235.394531 62.964844 C 237.425781 64.320312 240 59.402344 240.601562 58.390625 C 245.046875 50.882812 244.550781 41.304688 242.339844 33.179688 C 241.992188 31.902344 238.019531 19.253906 235.042969 23.605469 C 234.730469 24.058594 234.742188 24.722656 234.789062 25.242188 C 234.960938 27.101562 237.886719 27.117188 237.714844 25.242188 " fill-opacity="1" fill-rule="nonzero"/><path fill="#281f1f" d="M 247.09375 84.519531 C 236.054688 83.539062 196.289062 88.996094 196.289062 88.996094 C 196.289062 89 196.292969 89.007812 196.292969 89.011719 L 193.539062 89.011719 C 193.539062 89.007812 193.539062 89 193.539062 88.996094 C 193.539062 88.996094 153.773438 83.539062 142.738281 84.519531 C 139.621094 84.800781 134.832031 88.996094 134.832031 88.996094 C 134.832031 88.996094 136.230469 112.601562 160.355469 114.109375 C 183.347656 115.546875 190.371094 101.953125 192.664062 93.28125 L 197.164062 93.28125 C 199.457031 101.953125 206.484375 117.792969 229.472656 116.359375 C 253.597656 114.851562 254.996094 88.996094 254.996094 88.996094 C 254.996094 88.996094 250.207031 84.800781 247.09375 84.519531 " fill-opacity="1" fill-rule="nonzero"/><path fill="#777cf9" d="M 213.457031 67.785156 C 213.777344 66.871094 214.390625 65.945312 215.453125 65.851562 C 216.585938 65.753906 216.816406 67.203125 216.9375 68.011719 C 217.089844 69.035156 218.324219 69.226562 219.085938 68.886719 C 220.984375 68.039062 223.402344 67.222656 225.375 68.273438 C 227.414062 69.363281 227.210938 72.464844 227.011719 74.367188 C 226.8125 76.242188 229.742188 76.222656 229.9375 74.367188 C 230.246094 71.417969 229.914062 67.761719 227.179688 65.96875 C 224.210938 64.019531 220.605469 65.03125 217.609375 66.363281 C 218.328125 66.652344 219.042969 66.945312 219.757812 67.234375 C 218.890625 61.441406 212.351562 62.113281 210.636719 67.007812 C 210.011719 68.792969 212.839844 69.554688 213.457031 67.785156 " fill-opacity="1" fill-rule="nonzero"/><path fill="#777cf9" d="M 155.734375 63.730469 C 152.359375 65.777344 149.335938 76.097656 155.796875 75.640625 C 155.308594 75.152344 154.820312 74.667969 154.332031 74.179688 C 154.445312 77.964844 154.601562 81.140625 158.308594 83.042969 C 160.546875 84.1875 164.507812 85.324219 166.433594 83.042969 C 165.617188 82.828125 164.800781 82.613281 163.988281 82.398438 C 166.019531 89.574219 173.25 92.007812 180.097656 91.414062 C 181.960938 91.253906 181.976562 88.328125 180.097656 88.492188 C 174.605469 88.972656 168.484375 87.539062 166.808594 81.621094 C 166.527344 80.636719 165.09375 80.113281 164.363281 80.976562 C 163.328125 82.203125 160.46875 80.867188 159.351562 80.296875 C 156.949219 79.0625 157.324219 76.484375 157.257812 74.179688 C 157.238281 73.429688 156.609375 72.664062 155.796875 72.71875 C 153.476562 72.882812 156.003906 66.984375 157.210938 66.253906 C 158.816406 65.277344 157.347656 62.75 155.734375 63.730469 " fill-opacity="1" fill-rule="nonzero"/><path fill="#777cf9" d="M 194.136719 149.734375 C 195.585938 152.886719 194.535156 157.296875 194.496094 160.648438 C 194.476562 162.535156 197.402344 162.535156 197.421875 160.648438 C 197.46875 156.617188 198.410156 152.058594 196.660156 148.257812 C 195.875 146.550781 193.351562 148.039062 194.136719 149.734375 " fill-opacity="1" fill-rule="nonzero"/><path fill="#777cf9" d="M 145.878906 148.648438 C 145.203125 152.589844 145.808594 156.5 147.230469 160.214844 C 147.894531 161.957031 150.722656 161.203125 150.050781 159.4375 C 148.832031 156.25 148.113281 152.832031 148.699219 149.425781 C 149.015625 147.582031 146.195312 146.792969 145.878906 148.648438 " fill-opacity="1" fill-rule="nonzero"/><path fill="#777cf9" d="M 139.804688 183.144531 C 140.640625 185.644531 141.632812 187.84375 143.851562 189.410156 C 145.394531 190.5 146.855469 187.964844 145.328125 186.886719 C 143.796875 185.804688 143.195312 184.070312 142.625 182.367188 C 142.027344 180.589844 139.203125 181.351562 139.804688 183.144531 " fill-opacity="1" fill-rule="nonzero"/><path fill="#777cf9" d="M 248.386719 183.617188 C 248.300781 187.667969 246.910156 191.511719 243.867188 194.273438 C 242.464844 195.542969 244.539062 197.601562 245.933594 196.339844 C 249.535156 193.074219 251.210938 188.402344 251.3125 183.617188 C 251.351562 181.730469 248.425781 181.734375 248.386719 183.617188 " fill-opacity="1" fill-rule="nonzero"/><path fill="#777cf9" d="M 241.238281 148.9375 C 241.546875 150.703125 241.253906 152.492188 240.484375 154.105469 C 239.679688 155.796875 242.203125 157.285156 243.011719 155.582031 C 244.140625 153.203125 244.511719 150.757812 244.058594 148.160156 C 243.738281 146.304688 240.917969 147.09375 241.238281 148.9375 " fill-opacity="1" fill-rule="nonzero"/><path fill="#777cf9" d="M 229.9375 157.539062 C 229.972656 158.460938 230.128906 159.359375 230.296875 160.261719 C 230.617188 161.980469 229.78125 163.007812 228.566406 164.152344 C 228.042969 164.640625 228.082031 165.320312 228.335938 165.921875 C 229.972656 169.792969 227.945312 172.128906 224.808594 174.261719 C 223.261719 175.316406 224.722656 177.847656 226.289062 176.785156 C 228.339844 175.386719 230.382812 173.824219 231.394531 171.480469 C 232.414062 169.121094 231.820312 166.710938 230.863281 164.445312 C 230.785156 165.035156 230.710938 165.625 230.632812 166.21875 C 231.882812 165.042969 232.949219 163.761719 233.238281 162.027344 C 233.488281 160.515625 232.917969 159.042969 232.859375 157.539062 C 232.785156 155.660156 229.863281 155.65625 229.9375 157.539062 " fill-opacity="1" fill-rule="nonzero"/><path fill="#777cf9" d="M 240.109375 223.714844 C 237.691406 225.277344 235.191406 226.164062 232.296875 226.214844 C 230.414062 226.25 230.410156 229.171875 232.296875 229.136719 C 235.6875 229.074219 238.746094 228.074219 241.589844 226.242188 C 243.167969 225.222656 241.703125 222.691406 240.109375 223.714844 " fill-opacity="1" fill-rule="nonzero"/><g fill="#777cf9" fill-opacity="1"><g transform="translate(15.464332, 332.903661)"><g><path d="M 8.171875 -104.175781 C 7.625 -103.632812 6.808594 -103.496094 5.855469 -103.769531 C 5.582031 -103.769531 5.582031 -103.769531 5.582031 -103.769531 C 4.902344 -103.769531 4.222656 -98.320312 3.539062 -87.289062 C 2.859375 -76.125 2.585938 -62.507812 2.585938 -46.4375 C 2.585938 -33.089844 2.859375 -26.144531 3.40625 -25.601562 C 4.222656 -24.785156 4.902344 -21.109375 5.445312 -14.570312 C 6.265625 -7.898438 6.808594 -4.628906 7.355469 -4.628906 C 7.898438 -4.628906 8.035156 -5.71875 7.898438 -7.898438 C 7.898438 -8.714844 7.898438 -9.941406 7.898438 -11.574219 C 7.898438 -15.660156 8.171875 -17.703125 8.851562 -17.703125 C 8.851562 -17.703125 8.851562 -17.703125 8.988281 -17.703125 C 9.53125 -17.429688 9.804688 -16.207031 9.804688 -14.164062 C 9.804688 -9.261719 10.757812 -6.535156 12.664062 -5.992188 C 13.890625 -5.71875 14.570312 -4.765625 14.84375 -3.132812 C 15.117188 -1.632812 15.523438 -0.953125 16.070312 -0.953125 C 16.613281 -0.953125 17.160156 -2.179688 17.703125 -4.765625 C 18.246094 -7.488281 19.335938 -9.125 20.972656 -9.53125 C 25.191406 -10.757812 28.460938 -11.710938 30.640625 -12.257812 C 35.269531 -13.617188 37.585938 -14.84375 37.585938 -15.933594 C 37.585938 -16.476562 37.175781 -17.160156 36.222656 -17.976562 C 35.269531 -18.65625 34.863281 -19.609375 34.863281 -20.835938 C 34.863281 -21.925781 34.179688 -22.605469 32.820312 -22.742188 C 31.457031 -22.742188 30.914062 -23.421875 31.046875 -24.785156 C 31.183594 -25.464844 31.183594 -25.875 30.914062 -26.011719 C 30.640625 -26.144531 30.09375 -26.144531 29.277344 -25.875 C 27.507812 -25.328125 25.328125 -24.921875 22.605469 -24.648438 C 21.378906 -24.648438 19.066406 -24.511719 17.976562 -24.511719 C 17.839844 -28.324219 17.703125 -34.726562 17.566406 -39.898438 C 17.566406 -41.808594 17.566406 -45.484375 17.566406 -50.929688 C 17.566406 -62.097656 17.703125 -71.492188 17.976562 -79.121094 C 18.246094 -86.746094 18.382812 -93.144531 18.382812 -98.320312 C 18.382812 -101.863281 18.382812 -103.769531 18.382812 -103.902344 C 18.113281 -104.722656 17.429688 -105.128906 16.207031 -105.128906 C 15.933594 -105.128906 14.570312 -104.992188 12.257812 -104.722656 C 10.484375 -104.449219 9.394531 -104.039062 8.988281 -103.496094 Z M 8.171875 -104.175781 "/></g></g></g><g fill="#777cf9" fill-opacity="1"><g transform="translate(55.906729, 332.903661)"><g><path d="M 22.878906 -52.835938 C 22.878906 -51.746094 22.878906 -51.066406 22.742188 -50.660156 C 22.742188 -50.25 22.46875 -49.976562 22.195312 -49.839844 C 21.925781 -49.707031 21.378906 -49.707031 20.5625 -49.707031 C 18.792969 -49.570312 17.976562 -49.707031 17.976562 -50.113281 C 17.976562 -51.746094 18.246094 -54.472656 18.929688 -58.285156 C 19.609375 -62.097656 20.019531 -64.277344 20.289062 -64.683594 C 20.5625 -64.957031 20.835938 -65.230469 20.835938 -65.230469 C 21.925781 -65.230469 22.605469 -61.960938 22.742188 -55.425781 C 22.742188 -53.925781 22.742188 -53.925781 22.742188 -53.246094 Z M 18.382812 -90.96875 C 17.292969 -91.511719 16.613281 -91.511719 16.207031 -90.96875 C 15.660156 -90.285156 14.84375 -90.015625 13.617188 -90.148438 C 13.34375 -90.148438 13.34375 -90.148438 13.210938 -90.148438 C 12.527344 -90.148438 11.984375 -89.46875 11.4375 -88.109375 C 10.894531 -86.746094 9.941406 -83.476562 8.714844 -78.4375 C 7.488281 -71.359375 6.265625 -63.730469 4.902344 -55.5625 C 3.8125 -47.664062 3.132812 -38.8125 2.859375 -29.007812 C 2.859375 -20.5625 3.132812 -13.34375 3.675781 -7.21875 C 3.8125 -4.765625 4.085938 0.136719 4.222656 2.585938 C 4.492188 0.953125 5.039062 -1.769531 5.445312 -3.949219 C 6.265625 -8.714844 6.945312 -11.03125 7.355469 -11.03125 C 7.761719 -11.03125 8.035156 -8.851562 8.035156 -4.492188 C 8.035156 0.136719 8.441406 2.585938 9.394531 2.859375 C 10.347656 3.40625 10.757812 4.359375 10.757812 5.71875 C 10.757812 7.761719 11.167969 8.714844 12.121094 8.714844 C 12.390625 8.714844 12.664062 8.578125 12.9375 8.171875 C 14.296875 5.992188 15.523438 -3.675781 16.476562 -20.699219 C 17.023438 -33.226562 17.429688 -39.628906 17.703125 -39.898438 C 17.976562 -40.171875 18.65625 -40.171875 19.746094 -39.765625 C 20.699219 -39.355469 20.835938 -38.8125 20.15625 -37.992188 C 19.746094 -37.449219 19.609375 -37.039062 19.746094 -36.90625 C 19.882812 -36.769531 20.289062 -36.632812 21.109375 -36.632812 C 22.0625 -36.632812 22.605469 -36.359375 22.878906 -35.816406 C 23.015625 -35.269531 23.148438 -33.910156 23.148438 -31.730469 C 23.832031 -16.75 24.648438 -8.851562 25.601562 -8.035156 C 25.875 -8.035156 26.011719 -8.851562 26.011719 -10.621094 C 26.011719 -13.074219 26.28125 -15.386719 26.828125 -17.839844 C 27.234375 -20.15625 27.644531 -21.242188 28.054688 -21.242188 C 28.597656 -21.242188 28.871094 -19.882812 28.871094 -17.160156 C 28.871094 -11.847656 29.824219 -8.851562 31.867188 -8.308594 C 33.089844 -7.761719 33.636719 -6.945312 33.636719 -5.855469 C 33.636719 -4.765625 33.910156 -4.222656 34.453125 -4.222656 C 34.996094 -4.222656 35.40625 -4.902344 35.679688 -6.265625 C 36.085938 -7.488281 36.632812 -14.296875 37.175781 -26.554688 C 37.039062 -30.777344 37.039062 -34.042969 37.039062 -36.359375 C 36.90625 -41.808594 36.359375 -49.433594 35.269531 -59.101562 C 34.179688 -68.769531 32 -77.484375 28.597656 -85.246094 C 26.28125 -90.558594 24.238281 -93.144531 22.46875 -93.144531 C 21.925781 -93.144531 21.378906 -92.875 20.699219 -92.464844 C 19.609375 -91.648438 18.382812 -91.511719 17.023438 -92.054688 Z M 18.382812 -90.96875 "/></g></g></g><g fill="#777cf9" fill-opacity="1"><g transform="translate(97.574624, 332.903661)"><g><path d="M 55.96875 -55.96875 C 55.695312 -55.96875 55.425781 -56.105469 55.425781 -56.378906 C 55.425781 -56.648438 55.695312 -56.921875 55.96875 -56.921875 C 56.242188 -56.921875 56.378906 -56.648438 56.378906 -56.378906 C 56.378906 -56.105469 56.242188 -55.96875 55.96875 -55.96875 Z M 62.234375 -88.515625 C 60.054688 -88.515625 58.558594 -88.242188 57.875 -87.5625 C 56.785156 -86.066406 55.152344 -82.25 52.835938 -75.988281 C 50.523438 -69.722656 48.480469 -63.050781 46.574219 -55.96875 C 40.988281 -36.359375 37.3125 -26.554688 35.679688 -26.554688 C 34.996094 -26.554688 34.316406 -29.6875 33.636719 -35.949219 C 32.957031 -42.214844 32.546875 -49.839844 32.273438 -58.828125 C 32 -69.722656 31.730469 -76.394531 31.457031 -78.984375 C 31.183594 -81.570312 30.503906 -82.796875 29.277344 -82.796875 C 28.1875 -82.796875 27.507812 -82.523438 27.234375 -81.980469 C 26.964844 -81.433594 26.144531 -81.164062 24.785156 -81.164062 C 22.605469 -81.164062 21.378906 -81.570312 21.109375 -82.386719 C 20.835938 -83.203125 20.019531 -83.613281 18.65625 -83.613281 C 17.566406 -83.613281 16.886719 -83.339844 16.613281 -82.660156 C 16.207031 -82.117188 15.660156 -82.117188 14.84375 -82.386719 C 14.570312 -82.386719 14.570312 -82.386719 14.433594 -82.386719 C 14.027344 -82.386719 13.34375 -82.117188 12.527344 -81.433594 C 11.710938 -80.753906 11.03125 -80.480469 10.621094 -80.480469 C 10.347656 -80.480469 10.214844 -80.480469 10.078125 -80.617188 C 10.078125 -80.617188 10.078125 -80.617188 9.941406 -80.617188 C 9.394531 -80.617188 8.851562 -77.621094 8.441406 -71.628906 C 7.898438 -64.820312 7.21875 -55.695312 6.128906 -44.394531 C 5.3125 -37.039062 5.039062 -31.730469 5.039062 -28.460938 C 5.039062 -26.964844 5.039062 -26.144531 5.175781 -26.011719 C 5.582031 -25.601562 5.855469 -23.558594 5.992188 -19.746094 C 6.128906 -14.164062 6.535156 -11.4375 7.21875 -11.4375 C 7.355469 -11.4375 7.488281 -12.257812 7.488281 -13.890625 C 7.625 -16.613281 7.898438 -18.792969 8.441406 -20.289062 C 8.714844 -20.972656 9.261719 -22.332031 9.53125 -23.015625 C 9.667969 -22.332031 9.667969 -21.378906 9.804688 -20.5625 C 10.214844 -16.476562 10.621094 -14.027344 10.894531 -13.074219 C 11.167969 -12.121094 11.710938 -11.710938 12.527344 -11.710938 C 13.617188 -11.710938 14.433594 -11.03125 14.84375 -9.667969 C 15.117188 -8.578125 15.386719 -8.035156 15.660156 -8.035156 C 16.613281 -8.035156 17.292969 -12.257812 17.839844 -20.835938 C 18.113281 -27.644531 18.519531 -31.046875 19.066406 -31.046875 C 19.335938 -31.046875 19.746094 -29.277344 20.289062 -25.601562 C 21.378906 -17.160156 23.285156 -11.4375 26.144531 -8.441406 C 28.1875 -6.128906 30.503906 -5.039062 33.089844 -5.039062 C 37.175781 -5.039062 41.261719 -7.761719 45.347656 -13.210938 C 49.433594 -18.65625 52.292969 -23.832031 53.789062 -28.871094 C 54.742188 -31.730469 55.425781 -33.089844 55.832031 -33.089844 C 56.378906 -33.089844 56.648438 -31.046875 56.648438 -26.964844 C 56.648438 -20.835938 56.785156 -14.570312 57.195312 -8.441406 C 57.601562 -2.316406 58.011719 0.679688 58.421875 0.679688 C 58.964844 0.679688 59.238281 -0.542969 59.238281 -2.996094 C 59.238281 -5.445312 59.375 -7.761719 59.78125 -9.804688 C 60.191406 -11.847656 60.597656 -12.800781 61.144531 -12.800781 C 61.6875 -12.800781 61.960938 -10.621094 61.960938 -6.265625 C 61.960938 -3.539062 61.960938 -1.769531 62.097656 -0.953125 C 62.234375 -0.136719 62.640625 0.273438 63.460938 0.410156 C 64.820312 0.679688 65.5 1.632812 65.5 3.132812 C 65.5 4.628906 65.773438 5.445312 66.320312 5.445312 C 67.816406 5.445312 68.769531 1.90625 69.316406 -5.175781 C 69.859375 -12.257812 70.132812 -25.058594 70.132812 -43.441406 C 70.132812 -48.34375 70.132812 -48.34375 70.132812 -50.792969 C 70.132812 -68.496094 69.996094 -79.664062 69.722656 -84.429688 C 69.449219 -89.195312 68.769531 -91.511719 67.679688 -91.511719 C 67.136719 -91.511719 66.589844 -91.238281 66.183594 -90.96875 C 65.367188 -90.421875 63.730469 -90.148438 61.28125 -90.148438 Z M 62.234375 -88.515625 "/></g></g></g><g fill="#777cf9" fill-opacity="1"><g transform="translate(170.83389, 332.903661)"><g><path d="M 22.878906 -52.835938 C 22.878906 -51.746094 22.878906 -51.066406 22.742188 -50.660156 C 22.742188 -50.25 22.46875 -49.976562 22.195312 -49.839844 C 21.925781 -49.707031 21.378906 -49.707031 20.5625 -49.707031 C 18.792969 -49.570312 17.976562 -49.707031 17.976562 -50.113281 C 17.976562 -51.746094 18.246094 -54.472656 18.929688 -58.285156 C 19.609375 -62.097656 20.019531 -64.277344 20.289062 -64.683594 C 20.5625 -64.957031 20.835938 -65.230469 20.835938 -65.230469 C 21.925781 -65.230469 22.605469 -61.960938 22.742188 -55.425781 C 22.742188 -53.925781 22.742188 -53.925781 22.742188 -53.246094 Z M 18.382812 -90.96875 C 17.292969 -91.511719 16.613281 -91.511719 16.207031 -90.96875 C 15.660156 -90.285156 14.84375 -90.015625 13.617188 -90.148438 C 13.34375 -90.148438 13.34375 -90.148438 13.210938 -90.148438 C 12.527344 -90.148438 11.984375 -89.46875 11.4375 -88.109375 C 10.894531 -86.746094 9.941406 -83.476562 8.714844 -78.4375 C 7.488281 -71.359375 6.265625 -63.730469 4.902344 -55.5625 C 3.8125 -47.664062 3.132812 -38.8125 2.859375 -29.007812 C 2.859375 -20.5625 3.132812 -13.34375 3.675781 -7.21875 C 3.8125 -4.765625 4.085938 0.136719 4.222656 2.585938 C 4.492188 0.953125 5.039062 -1.769531 5.445312 -3.949219 C 6.265625 -8.714844 6.945312 -11.03125 7.355469 -11.03125 C 7.761719 -11.03125 8.035156 -8.851562 8.035156 -4.492188 C 8.035156 0.136719 8.441406 2.585938 9.394531 2.859375 C 10.347656 3.40625 10.757812 4.359375 10.757812 5.71875 C 10.757812 7.761719 11.167969 8.714844 12.121094 8.714844 C 12.390625 8.714844 12.664062 8.578125 12.9375 8.171875 C 14.296875 5.992188 15.523438 -3.675781 16.476562 -20.699219 C 17.023438 -33.226562 17.429688 -39.628906 17.703125 -39.898438 C 17.976562 -40.171875 18.65625 -40.171875 19.746094 -39.765625 C 20.699219 -39.355469 20.835938 -38.8125 20.15625 -37.992188 C 19.746094 -37.449219 19.609375 -37.039062 19.746094 -36.90625 C 19.882812 -36.769531 20.289062 -36.632812 21.109375 -36.632812 C 22.0625 -36.632812 22.605469 -36.359375 22.878906 -35.816406 C 23.015625 -35.269531 23.148438 -33.910156 23.148438 -31.730469 C 23.832031 -16.75 24.648438 -8.851562 25.601562 -8.035156 C 25.875 -8.035156 26.011719 -8.851562 26.011719 -10.621094 C 26.011719 -13.074219 26.28125 -15.386719 26.828125 -17.839844 C 27.234375 -20.15625 27.644531 -21.242188 28.054688 -21.242188 C 28.597656 -21.242188 28.871094 -19.882812 28.871094 -17.160156 C 28.871094 -11.847656 29.824219 -8.851562 31.867188 -8.308594 C 33.089844 -7.761719 33.636719 -6.945312 33.636719 -5.855469 C 33.636719 -4.765625 33.910156 -4.222656 34.453125 -4.222656 C 34.996094 -4.222656 35.40625 -4.902344 35.679688 -6.265625 C 36.085938 -7.488281 36.632812 -14.296875 37.175781 -26.554688 C 37.039062 -30.777344 37.039062 -34.042969 37.039062 -36.359375 C 36.90625 -41.808594 36.359375 -49.433594 35.269531 -59.101562 C 34.179688 -68.769531 32 -77.484375 28.597656 -85.246094 C 26.28125 -90.558594 24.238281 -93.144531 22.46875 -93.144531 C 21.925781 -93.144531 21.378906 -92.875 20.699219 -92.464844 C 19.609375 -91.648438 18.382812 -91.511719 17.023438 -92.054688 Z M 18.382812 -90.96875 "/></g></g></g><g fill="#777cf9" fill-opacity="1"><g transform="translate(212.501784, 332.903661)"><g><path d="M 2.179688 -73.808594 C 2.179688 -73.265625 2.453125 -72.71875 2.996094 -72.039062 C 4.085938 -70.949219 4.628906 -69.722656 4.628906 -68.363281 C 4.628906 -67 5.175781 -66.320312 6.398438 -66.320312 C 7.625 -66.320312 8.171875 -66.046875 8.171875 -65.5 C 8.171875 -65.09375 7.898438 -64.546875 7.21875 -63.867188 C 6.945312 -63.730469 6.945312 -63.59375 6.945312 -63.460938 C 6.945312 -63.324219 7.082031 -63.1875 7.625 -63.050781 C 8.035156 -62.914062 8.714844 -62.914062 9.667969 -62.914062 C 12.800781 -63.730469 17.292969 -65.230469 23.285156 -67.273438 C 21.109375 -60.191406 17.292969 -51.476562 11.710938 -41.125 C 6.128906 -30.777344 2.859375 -22.605469 1.90625 -16.613281 C 1.632812 -14.980469 1.632812 -13.753906 1.632812 -12.800781 C 1.632812 -11.847656 1.90625 -11.304688 2.316406 -11.03125 C 2.585938 -11.984375 3.132812 -13.480469 3.539062 -14.707031 C 4.492188 -17.023438 5.175781 -18.113281 5.71875 -18.113281 C 6.265625 -18.113281 6.535156 -17.023438 6.535156 -14.84375 C 6.535156 -12.390625 6.945312 -11.03125 7.898438 -10.757812 C 8.851562 -10.347656 9.261719 -9.804688 9.261719 -8.988281 C 9.261719 -8.035156 14.570312 -7.625 25.191406 -7.625 C 32.683594 -7.625 37.175781 -7.625 38.675781 -7.761719 C 40.171875 -7.898438 40.855469 -8.441406 40.855469 -9.261719 C 40.855469 -9.941406 40.582031 -10.621094 40.035156 -11.304688 C 39.492188 -11.984375 39.21875 -12.527344 39.21875 -13.074219 C 39.21875 -13.34375 39.355469 -13.753906 39.355469 -14.027344 C 39.628906 -15.117188 39.355469 -15.796875 38.402344 -16.207031 C 37.449219 -16.613281 37.175781 -17.429688 37.3125 -18.519531 C 37.3125 -18.519531 37.449219 -18.65625 37.449219 -18.929688 C 37.449219 -18.929688 37.449219 -18.929688 37.449219 -19.066406 C 37.449219 -20.019531 35.40625 -20.5625 31.183594 -20.835938 C 29.277344 -20.699219 27.234375 -20.5625 25.058594 -20.699219 C 22.878906 -20.699219 21.378906 -20.972656 20.5625 -21.515625 C 23.421875 -27.507812 25.875 -32.957031 28.054688 -37.859375 C 30.230469 -42.761719 32 -47.117188 33.5 -50.929688 C 35.679688 -57.332031 37.449219 -62.914062 38.8125 -67.679688 C 40.171875 -72.445312 40.988281 -75.851562 41.125 -77.894531 C 41.125 -79.121094 41.261719 -80.210938 41.261719 -81.164062 C 41.261719 -81.980469 41.125 -82.660156 40.988281 -83.070312 C 40.855469 -83.886719 40.855469 -84.292969 40.855469 -84.292969 C 40.445312 -84.292969 39.898438 -84.160156 39.21875 -83.613281 C 38.539062 -83.070312 37.859375 -82.660156 37.175781 -82.386719 C 36.222656 -82.117188 35.40625 -82.117188 34.863281 -82.25 C 34.316406 -82.386719 33.910156 -82.523438 33.773438 -82.660156 C 34.042969 -83.339844 34.179688 -83.886719 34.179688 -84.160156 C 34.179688 -84.429688 34.042969 -84.566406 33.773438 -84.566406 C 33.226562 -84.566406 32 -84.292969 29.960938 -83.75 C 27.917969 -83.203125 26.28125 -82.796875 25.058594 -82.523438 C 20.699219 -81.433594 15.660156 -80.074219 10.078125 -78.300781 C 4.492188 -76.53125 1.632812 -75.578125 1.496094 -75.441406 C 1.226562 -75.171875 1.089844 -74.761719 1.089844 -74.488281 Z M 2.179688 -73.808594 "/></g></g></g><g fill="#777cf9" fill-opacity="1"><g transform="translate(257.301575, 332.903661)"><g><path d="M 36.496094 -46.027344 C 36.496094 -36.222656 35.269531 -28.597656 32.683594 -23.148438 C 31.59375 -20.699219 30.09375 -19.472656 28.324219 -19.472656 C 25.738281 -19.472656 23.285156 -21.652344 21.109375 -26.144531 C 18.792969 -30.640625 17.703125 -35.816406 17.703125 -41.808594 C 17.703125 -42.351562 17.703125 -42.351562 17.703125 -42.625 C 17.703125 -46.4375 17.976562 -49.707031 18.519531 -52.566406 C 19.066406 -55.425781 19.746094 -56.785156 20.5625 -56.785156 C 20.699219 -56.785156 20.699219 -56.785156 20.835938 -56.785156 C 21.652344 -56.648438 22.0625 -55.5625 22.195312 -53.519531 C 22.46875 -51.613281 22.878906 -50.660156 23.421875 -50.660156 C 23.96875 -50.660156 24.375 -51.476562 24.648438 -53.246094 C 24.921875 -55.015625 25.738281 -56.785156 27.097656 -58.421875 C 28.1875 -59.78125 28.871094 -60.464844 29.277344 -60.464844 C 29.6875 -60.464844 30.230469 -60.191406 31.046875 -59.644531 C 32.683594 -58.558594 33.773438 -57.195312 34.316406 -55.5625 C 35.269531 -53.65625 35.679688 -50.25 35.679688 -45.347656 Z M 38.128906 -66.863281 C 38.128906 -66.589844 37.859375 -66.457031 37.585938 -66.457031 C 37.039062 -66.457031 36.222656 -66.726562 35.269531 -67.410156 C 34.042969 -68.363281 32.820312 -68.769531 31.457031 -68.769531 C 30.367188 -68.769531 29.824219 -69.179688 29.824219 -70.132812 C 29.824219 -70.675781 30.230469 -70.949219 31.046875 -70.949219 C 32.546875 -70.949219 34.316406 -70.132812 36.496094 -68.496094 C 37.585938 -67.679688 38.128906 -67 38.128906 -66.457031 Z M 5.039062 -61.417969 C 3.40625 -57.601562 2.316406 -53.109375 1.632812 -47.796875 C 1.363281 -44.257812 1.226562 -41.671875 1.226562 -40.171875 C 1.226562 -33.089844 2.585938 -26.417969 5.3125 -20.15625 C 7.898438 -14.296875 10.757812 -10.214844 14.027344 -7.761719 C 17.292969 -5.3125 21.515625 -4.085938 26.691406 -4.085938 C 32.136719 -4.085938 36.769531 -5.992188 40.71875 -9.804688 C 44.667969 -13.480469 47.390625 -18.792969 48.886719 -25.601562 C 49.976562 -30.503906 50.386719 -35.949219 50.386719 -41.808594 C 50.386719 -46.300781 50.113281 -49.839844 49.433594 -52.429688 C 48.34375 -56.242188 46.164062 -60.328125 42.761719 -64.546875 C 39.355469 -68.769531 36.085938 -71.492188 33.089844 -72.582031 C 28.1875 -74.488281 25.464844 -75.988281 24.921875 -76.941406 C 24.511719 -77.757812 23.832031 -77.894531 22.878906 -77.621094 C 22.742188 -77.484375 22.46875 -77.484375 22.195312 -77.484375 C 21.789062 -77.484375 21.378906 -77.894531 20.835938 -78.710938 C 20.425781 -79.527344 20.15625 -79.9375 19.882812 -79.9375 C 19.609375 -79.9375 17.566406 -77.757812 13.753906 -73.265625 C 10.214844 -68.90625 7.625 -64.820312 5.992188 -61.007812 Z M 5.039062 -61.417969 "/></g></g></g><g fill="#777cf9" fill-opacity="1"><g transform="translate(311.088628, 332.903661)"><g><path d="M 35.949219 -81.027344 C 35.949219 -78.03125 36.222656 -73.398438 36.769531 -67.136719 C 38.265625 -53.246094 39.082031 -44.394531 39.082031 -40.71875 C 39.082031 -39.628906 38.945312 -38.402344 38.8125 -37.039062 C 38.675781 -35.816406 38.539062 -35.269531 38.265625 -35.269531 C 37.722656 -35.269531 34.996094 -41.398438 30.09375 -53.789062 C 25.464844 -65.636719 22.332031 -73.265625 20.699219 -76.804688 C 19.066406 -80.34375 17.429688 -83.070312 15.796875 -84.976562 C 15.117188 -85.65625 13.890625 -86.882812 13.34375 -87.425781 C 12.664062 -86.746094 11.574219 -85.519531 10.621094 -84.566406 C 8.851562 -82.660156 8.035156 -81.164062 8.035156 -80.210938 C 8.035156 -79.390625 7.625 -78.984375 6.808594 -78.984375 C 5.992188 -78.984375 5.039062 -72.582031 3.949219 -59.644531 C 3.269531 -50.386719 2.996094 -40.855469 2.996094 -31.183594 C 2.996094 -17.703125 3.675781 -9.667969 5.039062 -7.082031 C 5.855469 -5.175781 6.671875 -1.90625 7.488281 2.722656 C 7.761719 4.628906 8.441406 8.308594 8.714844 10.078125 C 8.714844 8.578125 8.714844 5.992188 8.714844 3.949219 C 8.851562 -0.273438 9.125 -2.585938 9.53125 -3.132812 C 9.667969 -3.269531 9.667969 -3.269531 9.667969 -3.269531 C 10.078125 -3.269531 10.621094 -1.363281 11.4375 2.316406 C 12.121094 6.671875 13.074219 8.714844 14.164062 8.714844 C 15.253906 8.714844 15.933594 9.53125 16.339844 11.167969 C 16.75 12.800781 17.292969 13.617188 17.976562 13.617188 C 18.382812 13.617188 18.519531 11.984375 18.519531 8.578125 C 18.519531 4.765625 18.519531 1.363281 18.382812 -1.632812 C 17.566406 -23.148438 17.160156 -35.949219 17.160156 -40.035156 C 17.160156 -42.488281 17.160156 -43.714844 17.429688 -43.714844 C 17.703125 -43.578125 17.703125 -43.578125 17.703125 -43.441406 C 18.246094 -42.351562 20.15625 -37.449219 23.421875 -28.597656 C 25.875 -21.925781 27.917969 -17.160156 29.414062 -14.433594 C 30.914062 -11.710938 32.683594 -9.804688 34.589844 -8.714844 C 36.085938 -7.898438 37.449219 -7.488281 38.8125 -7.488281 C 41.535156 -7.488281 43.984375 -8.714844 46.300781 -11.167969 C 48.480469 -13.617188 50.25 -17.023438 51.613281 -21.378906 C 52.972656 -25.738281 53.65625 -32.136719 53.65625 -40.71875 C 53.65625 -48.34375 53.109375 -53.382812 52.019531 -55.96875 C 51.203125 -57.875 50.386719 -61.960938 49.433594 -68.089844 C 48.480469 -74.21875 48.070312 -78.984375 48.070312 -82.386719 C 48.070312 -85.113281 47.796875 -86.472656 47.117188 -86.472656 C 46.84375 -86.472656 46.710938 -85.246094 46.710938 -82.796875 C 46.710938 -79.9375 46.710938 -77.484375 46.84375 -75.308594 C 46.980469 -71.902344 46.980469 -69.859375 46.980469 -69.042969 C 46.980469 -65.773438 46.84375 -64.140625 46.4375 -64.140625 C 45.890625 -64.140625 45.210938 -66.589844 44.394531 -71.628906 C 44.257812 -72.71875 43.714844 -76.261719 42.894531 -82.386719 C 42.625 -84.566406 41.941406 -85.792969 40.988281 -86.066406 C 40.171875 -86.335938 39.765625 -87.835938 39.765625 -90.695312 C 39.765625 -93.828125 39.492188 -95.324219 38.945312 -95.324219 C 38.265625 -95.324219 37.722656 -93.964844 37.175781 -91.101562 C 36.496094 -88.515625 36.222656 -85.113281 36.222656 -80.753906 Z M 35.949219 -81.027344 "/></g></g></g></svg>